<svg id="Layer_1" data-name="Layer 1" xmlns="http://www.w3.org/2000/svg" viewBox="0 0 670.49 163.28"><defs><style>.cls-1{fill:#231f20;}</style></defs><title>JAYPEAK_logo_Jay_black</title><polygon class="cls-1" points="271.13 81.36 216.5 111.79 210.26 122.26 221.77 122.26 278.08 91.48 278.04 163.28 290.24 163.28 290.24 91.38 346.09 122.42 357.14 122.42 351.56 111.57 296.43 80.8 350.84 50.55 356.04 39.63 345.62 39.63 290.71 70.32 290.71 9.08 284.21 0 277.9 9.08 277.9 70.42 221.94 39.63 210.08 39.63 215.19 50.38 271.13 81.36"/><path class="cls-1" d="M494.92,374.31c-1.54,1.49-19.65,11.47-20.74,12.43,2.58,1.19,6.54,6.32,7.64,8.72L526,371,480.46,345.4c0.12,3.72-3.35,8.72-5.69,10,0,0,16.16,7.84,19.18,10.73,4.33,4.2,3.08,6.12,1,8.14" transform="translate(-264 -289.5)"/><path class="cls-1" d="M620.54,355.43c-2.34-1.31-5.83-6.32-5.68-10L569.35,371l46.53,26.11c-0.4-4.66,2.69-9.15,5.27-10.32-1.09-1-19.22-10.93-20.78-12.44-2.1-2.06-3.31-4,1-8.14,3-2.9,19.18-10.73,19.18-10.73" transform="translate(-264 -289.5)"/><path class="cls-1" d="M537.35,303.36c-3.22,2-10.07-.67-12.45-1.94,0,0-.14,18.61-0.14,22.37,0,3.93-3,6.46-7.23,4.38-2-.91-17.53-9.86-18.94-10.31,0.25,2.76-4.28,8.62-6.59,10.19l45.35,25.31v-50Z" transform="translate(-264 -289.5)"/><path class="cls-1" d="M597.36,317.87c-1.43.45-17,9.4-19,10.31-4.24,2.07-7.18-.45-7.18-4.38,0-3.77-.19-22.38-0.19-22.38-2.35,1.27-9.2,4-12.44,2v50l46-26c-2.32-1.57-7.45-6.74-7.18-9.5" transform="translate(-264 -289.5)"/><polygon class="cls-1" points="273.23 99.64 231.78 122.29 273.23 122.29 273.23 99.64"/><polygon class="cls-1" points="295.04 99.64 295.04 122.29 336.48 122.29 295.04 99.64"/><path class="cls-1" d="M673.2,381.59h-13v30.84H639V326H673.2c19.17,0,29.47,13.58,29.47,27.8s-10.3,27.78-29.47,27.78m-1-36.51h-12v17.47h12c5.83,0,9.24-4.26,9.24-8.74s-3.41-8.73-9.24-8.73" transform="translate(-264 -289.5)"/><polygon class="cls-1" points="445.65 122.92 445.65 36.51 504.35 36.51 504.35 55.45 466.87 55.45 466.87 69.87 498.9 69.87 498.9 88.82 466.87 88.82 466.87 104 504.35 104 504.35 122.92 445.65 122.92"/><path class="cls-1" d="M832.23,412.42l-4-12.85H801.65l-4.26,12.85H775.21L806.64,326H823l31.47,86.42H832.23Zm-16.86-53.66-7.78,23.06h15.05Z" transform="translate(-264 -289.5)"/><polygon class="cls-1" points="645.73 122.92 625.85 87.46 618.58 95.86 618.58 122.92 597.54 122.92 597.54 36.51 618.58 36.51 618.58 67.1 643.54 36.51 669.55 36.51 640.04 71.46 670.49 122.92 645.73 122.92"/><path class="cls-1" d="M379.23,412.42l-4-12.85H348.62l-4.23,12.85H322.18L353.63,326H370l31.46,86.42H379.23Zm-16.88-53.66-7.77,23.06h15.06Z" transform="translate(-264 -289.5)"/><polygon class="cls-1" points="171.75 87.73 171.75 122.92 150.5 122.92 150.5 87.73 124.41 36.51 147.6 36.51 161.2 67.61 174.66 36.51 197.83 36.51 171.75 87.73"/><path class="cls-1" d="M287.55,413.16c-10.06,0-16.5-2.44-23.55-9.48l14-13.85c2.67,2.7,4.87,4.37,9.59,4.37,6.56,0,11.29-3.62,11.29-11.89V326h21.22v56.77c0,20.53-16.26,30.37-32.51,30.37" transform="translate(-264 -289.5)"/></svg>
